<svg id="Layer_2" data-name="Layer 2" xmlns="http://www.w3.org/2000/svg" viewBox="0 0 903.49 1348.48"><defs><style>.cls-1{fill:#ff8c00;stroke:#ff8c00;}.cls-1,.cls-10,.cls-11,.cls-12,.cls-13,.cls-14,.cls-15,.cls-16,.cls-17,.cls-18,.cls-2,.cls-3,.cls-5,.cls-6,.cls-7,.cls-8,.cls-9{stroke-miterlimit:10;}.cls-1,.cls-12,.cls-13,.cls-14,.cls-16,.cls-5,.cls-7,.cls-8{stroke-width:6px;}.cls-15,.cls-17,.cls-18,.cls-2,.cls-3,.cls-6{fill:none;}.cls-10,.cls-11,.cls-15,.cls-2,.cls-3,.cls-6,.cls-7,.cls-9{stroke:#222221;}.cls-10,.cls-3{stroke-width:0.75px;}.cls-4{fill:#fff;}.cls-5{fill:#ffc230;stroke:#ffc230;}.cls-11,.cls-6{stroke-width:0.25px;}.cls-10,.cls-11,.cls-7,.cls-9{fill:#ecbf42;}.cls-8{fill:#ffb60a;stroke:#ffb60a;}.cls-12{fill:#ffb001;stroke:#ffb001;}.cls-13{fill:#ffa600;stroke:#ffa600;}.cls-14{fill:#f90;stroke:#f90;}.cls-15{stroke-width:0.5px;}.cls-16{fill:#fc3;stroke:#fc3;}.cls-17{stroke:#292929;}.cls-18{stroke:#ecbf42;}</style></defs><title>Huset_Olika_Färg1</title><rect class="cls-1" x="76.08" y="1238.58" width="751.33" height="79.86"/><line class="cls-2" x1="658.31" y1="1238.58" x2="658.31" y2="1318.44"/><line class="cls-2" x1="643.52" y1="1318.44" x2="643.52" y2="1238.58"/><line class="cls-2" x1="475.9" y1="1318.44" x2="475.9" y2="1237.76"/><line class="cls-2" x1="667.84" y1="1316.64" x2="667.84" y2="1240.22"/><line class="cls-3" x1="78.88" y1="1251.07" x2="91.37" y2="1251.07"/><polyline class="cls-3" points="83.31 1251.07 83.31 1291.16 86.6 1291.16 113.39 1304.15 116.34 1316.47"/><polyline class="cls-2" points="113.39 1304.15 104.84 1267.17 91.37 1267.17 91.37 1238.58"/><line class="cls-2" x1="102.38" y1="1267.17" x2="102.38" y2="1241.21"/><line class="cls-2" x1="83.31" y1="1291.17" x2="78.55" y2="1291.17"/><line class="cls-2" x1="83.31" y1="1289.32" x2="78.26" y2="1289.32"/><line class="cls-2" x1="263.36" y1="1316.82" x2="263.36" y2="1239.54"/><line class="cls-2" x1="283.31" y1="1315.82" x2="283.31" y2="1240.55"/><path class="cls-4" d="M1180.79,1554.66a11,11,0,0,1,3.51-.56,11.4,11.4,0,0,1,1.8.15,9,9,0,0,1,1.45-1.37h-2.66v-16.09h12v-20.13h12V1496h10.5v-3.83H1205v20.62h-12V1533h-12v19.92h-2.23a8.83,8.83,0,0,1,2,1.78" transform="translate(-1002.09 -245.33)"/><rect class="cls-5" x="76.08" y="309.26" width="751.33" height="131.59"/><line class="cls-2" x1="658.31" y1="309.26" x2="658.31" y2="439.33"/><line class="cls-2" x1="475.9" y1="439.33" x2="475.9" y2="309.26"/><line class="cls-2" x1="498.58" y1="310.35" x2="498.58" y2="440.85"/><path class="cls-2" d="M1268.64,553.07V686.18" transform="translate(-1002.09 -245.33)"/><line class="cls-2" x1="279.69" y1="309.26" x2="279.69" y2="440.85"/><line class="cls-2" x1="429.07" y1="440.85" x2="429.07" y2="309.26"/><line class="cls-2" x1="449.94" y1="439.33" x2="449.94" y2="309.26"/><line class="cls-2" x1="648.12" y1="439.33" x2="648.12" y2="309.26"/><line class="cls-2" x1="810.81" y1="440.85" x2="810.81" y2="306.91"/><line class="cls-2" x1="429.07" y1="327.72" x2="449.04" y2="327.72"/><rect class="cls-2" x="819.58" y="319.9" width="3.4" height="72.53"/><line class="cls-6" x1="810.81" y1="393.73" x2="825.68" y2="393.73"/><line class="cls-6" x1="820.55" y1="394.85" x2="820.55" y2="392.25"/><line class="cls-6" x1="823.75" y1="394.67" x2="823.75" y2="392.43"/><path class="cls-4" d="M1218.81,677.06h-.62V664.19h-7.07V652.31h-7.06V640.16h-7.32V628h-7.06V616.41h-7.06V604.54h-7.07V592.66H1168V579.94h-6.82V568.07h-7.56V560h-.35a6.33,6.33,0,0,1-1.91-.28v10.6h7.56V582.2h6.81v12.72h7.57V606.8h7.06v11.87h7.07v11.59h7.06v12.16h7.32v12.16h7.06v11.87h7.06v10.61h-1.27" transform="translate(-1002.09 -245.33)"/><line class="cls-7" x1="475.9" y1="493.26" x2="498.58" y2="493.26"/><line class="cls-7" x1="449.04" y1="493.26" x2="475.9" y2="493.26"/><polygon class="cls-8" points="498.58 493.26 827.41 493.26 827.41 611.58 76.08 611.58 76.08 493.26 449.04 493.26 498.58 493.26"/><line class="cls-9" x1="658.31" y1="491.53" x2="658.31" y2="611.58"/><line class="cls-9" x1="643.52" y1="611.58" x2="643.52" y2="493.26"/><line class="cls-9" x1="475.9" y1="611.41" x2="475.9" y2="491.53"/><line class="cls-9" x1="498.58" y1="493.26" x2="498.58" y2="611.58"/><path class="cls-9" d="M1268.64,738.59V856.74" transform="translate(-1002.09 -245.33)"/><line class="cls-9" x1="279.69" y1="493.26" x2="279.69" y2="611.41"/><rect class="cls-9" x="80.01" y="495.11" width="3.4" height="82.33"/><rect class="cls-9" x="90.53" y="491.1" width="2.29" height="110.06"/><line class="cls-9" x1="78.92" y1="579.41" x2="90.53" y2="579.41"/><polyline class="cls-9" points="83.85 579.41 83.85 577.44 80.01 577.44 80.01 579.41"/><line class="cls-9" x1="429.07" y1="611.41" x2="429.07" y2="493.26"/><line class="cls-9" x1="449.94" y1="611.58" x2="449.94" y2="491.53"/><line class="cls-9" x1="456.35" y1="611.41" x2="456.35" y2="493.26"/><line class="cls-9" x1="469.49" y1="611.41" x2="469.49" y2="494.57"/><line class="cls-9" x1="495.46" y1="611.41" x2="495.46" y2="494.57"/><line class="cls-9" x1="648.12" y1="611.58" x2="648.12" y2="491.53"/><line class="cls-9" x1="662.75" y1="610.1" x2="662.75" y2="493.26"/><line class="cls-9" x1="810.81" y1="609.77" x2="810.81" y2="493.26"/><rect class="cls-9" x="819.58" y="495.89" width="3.4" height="82.33"/><line class="cls-10" x1="810.81" y1="581.88" x2="825.07" y2="581.88"/><line class="cls-11" x1="823.42" y1="581.88" x2="823.42" y2="578.47"/><line class="cls-11" x1="819.99" y1="581.88" x2="819.99" y2="578.47"/><line class="cls-11" x1="818.7" y1="579.94" x2="823.42" y2="579.94"/><line class="cls-2" x1="90.89" y1="601.16" x2="90.89" y2="609.24"/><line class="cls-2" x1="92.46" y1="601.16" x2="92.46" y2="609.24"/><path class="cls-4" d="M1151.35,850.53h.62V838.71H1159v-10.9h7.06V816.66h7.31V805.5h7.07V794.86h7.06V784h7.07v-10.9h7.56V761.38H1209v-10.9h7.57v-7.41l.35,0a7.06,7.06,0,0,0,1.91-.26v9.73h-7.56v10.9h-6.82v11.67h-7.56V786h-7.07v10.9h-7.06v10.64h-7.06v11.16h-7.32v11.16h-7.06v10.9h-7.07v9.74h1.28" transform="translate(-1002.09 -245.33)"/><rect class="cls-12" x="76.08" y="679.22" width="751.33" height="130.15"/><line class="cls-2" x1="658.31" y1="679.23" x2="658.31" y2="809.38"/><line class="cls-2" x1="643.52" y1="808.39" x2="643.52" y2="679.22"/><line class="cls-2" x1="475.9" y1="809.38" x2="475.9" y2="679.06"/><line class="cls-2" x1="498.58" y1="679.22" x2="498.58" y2="728.52"/><path class="cls-2" d="M1268.64,924.39v130.32" transform="translate(-1002.09 -245.33)"/><line class="cls-2" x1="279.69" y1="679.06" x2="279.69" y2="809.38"/><line class="cls-2" x1="429.07" y1="809.38" x2="429.07" y2="679.06"/><line class="cls-2" x1="449.94" y1="809.38" x2="449.94" y2="679.22"/><line class="cls-2" x1="456.35" y1="809.38" x2="456.35" y2="679.06"/><line class="cls-3" x1="810.32" y1="809.38" x2="810.32" y2="679.23"/><line class="cls-3" x1="825.27" y1="694.18" x2="810.32" y2="694.18"/><line class="cls-3" x1="820.67" y1="782.1" x2="820.67" y2="694.18"/><polyline class="cls-3" points="823.3 782.1 823.3 694.18 820.67 694.18"/><line class="cls-3" x1="825.27" y1="780.13" x2="818.86" y2="780.13"/><polyline class="cls-3" points="825.27 782.92 825.27 782.1 810.32 782.1"/><line class="cls-2" x1="279.69" y1="775.42" x2="266.54" y2="775.42"/><line class="cls-2" x1="471.14" y1="681.36" x2="471.14" y2="807.24"/><line class="cls-2" x1="447.8" y1="693.52" x2="456.35" y2="693.52"/><line class="cls-2" x1="471.96" y1="694.34" x2="477.55" y2="694.34"/><path class="cls-4" d="M1218.81,1049.06h-.62v-12.87h-7.07v-11.88h-7.06v-12.15h-7.32V1000h-7.06V988.41h-7.06V976.54h-7.07V964.66H1168V951.94h-6.82V940.07h-7.56V932h-.35a6.33,6.33,0,0,1-1.91-.28v10.6h7.56V954.2h6.81v12.72h7.57V978.8h7.06v11.87h7.07v11.59h7.06v12.16h7.32v12.16h7.06v11.87h7.06v10.61h-1.27" transform="translate(-1002.09 -245.33)"/><rect class="cls-13" x="76.08" y="861.13" width="751.33" height="128.68"/><line class="cls-2" x1="658.31" y1="861.13" x2="658.31" y2="989.81"/><line class="cls-2" x1="643.52" y1="989.81" x2="643.52" y2="860.15"/><line class="cls-2" x1="475.9" y1="989.81" x2="475.9" y2="861.14"/><path class="cls-2" d="M1268.64,1106.46v131.47" transform="translate(-1002.09 -245.33)"/><line class="cls-2" x1="279.69" y1="861.13" x2="279.69" y2="989.81"/><line class="cls-3" x1="810.32" y1="989.81" x2="810.32" y2="861.13"/><rect class="cls-2" x="449.64" y="877.9" width="6.71" height="111.25"/><polyline class="cls-2" points="449.64 877.9 449.64 858.01 456.35 858.01 456.35 877.9"/><path class="cls-4" d="M1151.35,1227.31h.62v-12.55H1159v-11.58h7.06v-11.85h7.31v-11.85h7.07v-11.3h7.06V1156.6h7.07V1145h7.56v-12.4H1209v-11.58h7.57v-7.87l.35,0a6.67,6.67,0,0,0,1.91-.27v10.32h-7.56v11.58h-6.82v12.4h-7.56v11.58h-7.07v11.58h-7.06v11.3h-7.06v11.85h-7.32v11.85h-7.06V1217h-7.07v10.35h1.28" transform="translate(-1002.09 -245.33)"/><rect class="cls-14" x="76.08" y="1041.44" width="751.33" height="141.98"/><line class="cls-2" x1="658.31" y1="1041.43" x2="658.31" y2="1183.41"/><line class="cls-2" x1="643.52" y1="1183.41" x2="643.52" y2="1041.43"/><line class="cls-2" x1="475.9" y1="1182.59" x2="475.9" y2="1041.43"/><polyline class="cls-2" points="83.31 1054.41 83.31 1153.84 78.88 1153.84"/><polyline class="cls-2" points="79.86 1054.41 79.86 1155.81 93.34 1155.81"/><line class="cls-2" x1="78.88" y1="1054.42" x2="92.68" y2="1054.42"/><line class="cls-2" x1="100.24" y1="1180.95" x2="100.24" y2="1043.24"/><line class="cls-2" x1="100.24" y1="1054.42" x2="263.36" y2="1054.42"/><line class="cls-2" x1="263.36" y1="1044.23" x2="263.36" y2="1183.42"/><line class="cls-2" x1="283.31" y1="1043.4" x2="283.31" y2="1182.27"/><line class="cls-2" x1="283.31" y1="1055.07" x2="428.08" y2="1055.07"/><polyline class="cls-2" points="428.08 1043.4 428.08 1061.65 449.12 1061.65 449.12 1043.4"/><polyline class="cls-2" points="449.12 1056.06 453.72 1056.06 453.72 1042.91"/><polyline class="cls-2" points="473.27 1045.21 473.27 1156.3 453.72 1156.3 453.72 1056.06"/><line class="cls-15" x1="664.89" y1="1182.59" x2="664.89" y2="1041.43"/><line class="cls-6" x1="824.95" y1="1156.14" x2="818.86" y2="1156.14"/><polyline class="cls-3" points="823.47 1158.27 824.95 1058.03 820.51 1058.03 820.51 1158.27 824.95 1158.27 810.32 1158.27 810.32 1181.44"/><line class="cls-3" x1="810.32" y1="1158.27" x2="810.32" y2="1041.43"/><line class="cls-3" x1="824.95" y1="1055.98" x2="664.89" y2="1055.98"/><line class="cls-2" x1="91.37" y1="1183.41" x2="91.37" y2="1043.24"/><path class="cls-4" d="M1218.81,1421.06h-.62v-13.24h-7.07v-12.21h-7.06v-12.5h-7.32v-12.5h-7.06v-11.92h-7.06v-12.21h-7.07v-12.21H1168v-13.09h-6.82V1309h-7.56v-8.3l-.35,0a6.33,6.33,0,0,1-1.91-.29v10.9h7.56v12.21h6.81v13.08h7.57v12.21h7.06V1361h7.07v11.92h7.06v12.51h7.32v12.5h7.06v12.21h7.06v10.91h-1.27" transform="translate(-1002.09 -245.33)"/><polygon class="cls-16" points="827.41 251.54 831.66 257.46 75.31 257.46 153.98 151.46 454.89 109.13 761.7 152.53 827.41 251.54"/><line class="cls-2" x1="475.9" y1="257.46" x2="475.9" y2="114.15"/><line class="cls-2" x1="498.58" y1="116.95" x2="498.58" y2="258.69"/><rect class="cls-2" x="555.19" y="125.38" width="5.79" height="130.44"/><line class="cls-2" x1="465.55" y1="120.89" x2="465.55" y2="257.45"/><line class="cls-2" x1="731.81" y1="147.64" x2="725.61" y2="151.21"/><line class="cls-2" x1="774.05" y1="203.82" x2="780.41" y2="198.66"/><line class="cls-2" x1="465.55" y1="121.43" x2="366.75" y2="131.5"/><polygon class="cls-2" points="366.95 257.45 361.16 257.45 361.16 121.43 366.95 124.08 366.95 257.45"/><polygon class="cls-2" points="275.75 257.45 269.95 257.45 269.95 135.01 275.75 136.19 275.75 257.45"/><rect class="cls-2" x="168.4" y="148.95" width="5.79" height="108.5"/><polygon class="cls-2" points="129.36 257.45 126.46 257.45 126.46 207.46 129.36 203.2 129.36 257.45"/><line class="cls-2" x1="168.4" y1="154.42" x2="86.93" y2="257.45"/><polygon class="cls-2" points="94.07 248.43 96.2 245.73 129.36 246.19 129.36 248.89 94.07 248.43"/><rect class="cls-2" x="711.82" y="157.62" width="5.79" height="99.83"/><polyline class="cls-2" points="711.82 157.62 711.82 150.97 725.61 150.97 725.61 157.62 719.86 157.62 719.86 150.97"/><polygon class="cls-2" points="775.05 254.78 779.42 254.78 779.42 210.29 775.05 205.29 775.05 254.78"/><polygon class="cls-2" points="815.52 250.24 811.14 245.25 775.05 245.25 775.05 250.24 815.52 250.24"/><line class="cls-2" x1="429.07" y1="257.45" x2="429.07" y2="114.15"/><line class="cls-2" x1="449.94" y1="257.45" x2="449.94" y2="110.24"/><line class="cls-2" x1="465.55" y1="124.42" x2="711.82" y2="150.97"/><line class="cls-2" x1="725.61" y1="150.97" x2="821.28" y2="257.45"/><path class="cls-4" d="M1148.91,497.05a10.78,10.78,0,0,1,3.52-.56,11.37,11.37,0,0,1,1.79.15,10.06,10.06,0,0,1,1.46-1.38H1153V479.18h12V459h12V438.42h10.49v-3.83h-14.33v20.62h-12v20.14h-12v19.91H1147a9.07,9.07,0,0,1,2,1.79" transform="translate(-1002.09 -245.33)"/><path class="cls-17" d="M1866.71,1579.27" transform="translate(-1002.09 -245.33)"/><polygon class="cls-18" points="864.62 1010.67 864.62 846.39 44.79 846.39 44.79 1010.09 864.62 1010.67"/><polygon class="cls-18" points="864.62 1211.37 864.62 1022.97 44.79 1022.97 44.79 1210.7 864.62 1211.37"/><polygon class="cls-18" points="864.5 832.82 864.5 662.76 44.67 662.76 44.67 832.22 864.5 832.82"/><polygon class="cls-18" points="864.62 650.08 864.62 475.99 44.78 476.02 44.79 649.49 864.62 650.08"/><polygon class="cls-18" points="864.62 462.9 864.62 291.23 44.79 291.23 44.79 462.3 864.62 462.9"/><polygon class="cls-18" points="864.62 1333.94 864.62 1223.93 44.79 1223.93 44.79 1333.56 864.62 1333.94"/><polygon class="cls-18" points="44.79 278.34 44.79 261.12 137.83 137.48 453.91 93.14 771.57 138.06 864.43 261.7 864.62 278.92 44.79 278.34"/><path class="cls-18" d="M1456.17,254.78c5.95,14.53,31,20,31,20l-4.76,23.12c-4.37,9.13-20.61,16.67-20.61,16.67,2.59,9.29,24.34,6.83,24.34,6.83l2.71,4.06,300.83,44.89C1876.47,507.75,1905.08,507,1905.08,507v5.51L1898,517.4c-10.36,5.29-10.15,17.27-10.15,17.27V1593.31l-868-.58v-1060s-2-10-6.75-13.44-10.44-7.23-10.44-7.23v-5.59s41.39-23.1,78.33-79.9l36.93-56.79,300.44-44.39,2.74-4.15s22,2.57,25.38-6.48a33,33,0,0,1-23.65-28.42l-2.4-12.13s26.78-5,31-19.41" transform="translate(-1002.09 -245.33)"/><ellipse class="cls-18" cx="451.75" cy="4.97" rx="6.17" ry="4.47"/></svg>