<?xml version="1.0" encoding="utf-8"?>
<!-- Generator: Adobe Illustrator 24.0.0, SVG Export Plug-In . SVG Version: 6.00 Build 0)  -->
<svg version="1.1" id="Layer_2" xmlns="http://www.w3.org/2000/svg" xmlns:xlink="http://www.w3.org/1999/xlink" x="0px" y="0px"
	 viewBox="0 0 903.5 1348.5" style="enable-background:new 0 0 903.5 1348.5;" xml:space="preserve">
<style type="text/css">
	.st0{fill:none;stroke:#222221;stroke-miterlimit:10;}
	.st1{fill:none;stroke:#222221;stroke-width:0.75;stroke-miterlimit:10;}
	.st2{fill:none;stroke:#222221;stroke-width:0.25;stroke-miterlimit:10;}
	.st3{fill:none;stroke:#222221;stroke-width:6;stroke-miterlimit:10;}
	.st4{fill:#ECBF42;stroke:#222221;stroke-miterlimit:10;}
	.st5{fill:none;stroke:#222221;stroke-width:0.5;stroke-miterlimit:10;}
	.st6{fill:none;stroke:#292929;stroke-miterlimit:10;}
	.st7{fill:none;stroke:#ECBF42;stroke-miterlimit:10;}
	.st8{fill:#FFCC33;stroke:#FFCC33;stroke-width:6;stroke-miterlimit:10;}
	.st9{fill:#FFFFFF;}
	.st10{fill:#FF8C00;stroke:#FF8C00;stroke-width:6;stroke-miterlimit:10;}
	.st11{fill:#FFC230;stroke:#FFC230;stroke-width:6;stroke-miterlimit:10;}
	.st12{fill:#FFB60A;stroke:#FFB60A;stroke-width:6;stroke-miterlimit:10;}
	.st13{fill:#FFB001;stroke:#FFB001;stroke-width:6;stroke-miterlimit:10;}
	.st14{fill:#FFA600;stroke:#FFA600;stroke-width:6;stroke-miterlimit:10;}
	.st15{fill:#FF9900;stroke:#FF9900;stroke-width:6;stroke-miterlimit:10;}
</style>
<title>Huset_Olika_Färg1</title>
<line class="st0" x1="658.3" y1="1238.6" x2="658.3" y2="1318.4"/>
<line class="st0" x1="643.5" y1="1318.4" x2="643.5" y2="1238.6"/>
<line class="st0" x1="475.9" y1="1318.4" x2="475.9" y2="1237.8"/>
<line class="st0" x1="667.8" y1="1316.6" x2="667.8" y2="1240.2"/>
<line class="st1" x1="78.9" y1="1251.1" x2="91.4" y2="1251.1"/>
<polyline class="st1" points="83.3,1251.1 83.3,1291.2 86.6,1291.2 113.4,1304.2 116.3,1316.5 "/>
<polyline class="st0" points="113.4,1304.2 104.8,1267.2 91.4,1267.2 91.4,1238.6 "/>
<line class="st0" x1="102.4" y1="1267.2" x2="102.4" y2="1241.2"/>
<line class="st0" x1="83.3" y1="1291.2" x2="78.6" y2="1291.2"/>
<line class="st0" x1="83.3" y1="1289.3" x2="78.3" y2="1289.3"/>
<line class="st0" x1="263.4" y1="1316.8" x2="263.4" y2="1239.5"/>
<line class="st0" x1="283.3" y1="1315.8" x2="283.3" y2="1240.6"/>
<line class="st0" x1="658.3" y1="309.3" x2="658.3" y2="439.3"/>
<line class="st0" x1="475.9" y1="439.3" x2="475.9" y2="309.3"/>
<line class="st0" x1="498.6" y1="310.4" x2="498.6" y2="440.9"/>
<path class="st0" d="M266.5,307.7v133.1"/>
<line class="st0" x1="279.7" y1="309.3" x2="279.7" y2="440.9"/>
<line class="st0" x1="429.1" y1="440.9" x2="429.1" y2="309.3"/>
<line class="st0" x1="449.9" y1="439.3" x2="449.9" y2="309.3"/>
<line class="st0" x1="648.1" y1="439.3" x2="648.1" y2="309.3"/>
<line class="st0" x1="810.8" y1="440.9" x2="810.8" y2="306.9"/>
<line class="st0" x1="429.1" y1="327.7" x2="449" y2="327.7"/>
<rect x="819.6" y="319.9" class="st0" width="3.4" height="72.5"/>
<line class="st2" x1="810.8" y1="393.7" x2="825.7" y2="393.7"/>
<line class="st2" x1="820.5" y1="394.9" x2="820.5" y2="392.2"/>
<line class="st2" x1="823.8" y1="394.7" x2="823.8" y2="392.4"/>
<line class="st3" x1="475.9" y1="493.3" x2="498.6" y2="493.3"/>
<line class="st3" x1="449" y1="493.3" x2="475.9" y2="493.3"/>
<line class="st0" x1="658.3" y1="491.5" x2="658.3" y2="611.6"/>
<line class="st0" x1="643.5" y1="611.6" x2="643.5" y2="493.3"/>
<line class="st0" x1="475.9" y1="611.4" x2="475.9" y2="491.5"/>
<line class="st0" x1="498.6" y1="493.3" x2="498.6" y2="611.6"/>
<path class="st4" d="M266.5,493.3v118.1"/>
<line class="st0" x1="279.7" y1="493.3" x2="279.7" y2="611.4"/>
<rect x="80" y="495.1" class="st4" width="3.4" height="82.3"/>
<rect x="90.5" y="491.1" class="st4" width="2.3" height="110.1"/>
<line class="st0" x1="78.9" y1="579.4" x2="90.5" y2="579.4"/>
<polyline class="st4" points="83.8,579.4 83.8,577.4 80,577.4 80,579.4 "/>
<line class="st0" x1="429.1" y1="611.4" x2="429.1" y2="493.3"/>
<line class="st0" x1="449.9" y1="611.6" x2="449.9" y2="491.5"/>
<line class="st0" x1="456.4" y1="611.4" x2="456.4" y2="493.3"/>
<line class="st0" x1="469.5" y1="611.4" x2="469.5" y2="494.6"/>
<line class="st0" x1="495.5" y1="611.4" x2="495.5" y2="494.6"/>
<line class="st0" x1="648.1" y1="611.6" x2="648.1" y2="491.5"/>
<line class="st0" x1="662.8" y1="610.1" x2="662.8" y2="493.3"/>
<line class="st0" x1="810.8" y1="609.8" x2="810.8" y2="493.3"/>
<rect x="819.6" y="495.9" class="st4" width="3.4" height="82.3"/>
<line class="st1" x1="810.8" y1="581.9" x2="825.1" y2="581.9"/>
<line class="st2" x1="823.4" y1="581.9" x2="823.4" y2="578.5"/>
<line class="st2" x1="820" y1="581.9" x2="820" y2="578.5"/>
<line class="st2" x1="818.7" y1="579.9" x2="823.4" y2="579.9"/>
<line class="st0" x1="90.9" y1="601.2" x2="90.9" y2="609.2"/>
<line class="st0" x1="92.5" y1="601.2" x2="92.5" y2="609.2"/>
<line class="st0" x1="658.3" y1="679.2" x2="658.3" y2="809.4"/>
<line class="st0" x1="643.5" y1="808.4" x2="643.5" y2="679.2"/>
<line class="st0" x1="475.9" y1="809.4" x2="475.9" y2="679.1"/>
<line class="st0" x1="498.6" y1="679.2" x2="498.6" y2="728.5"/>
<path class="st0" d="M266.5,679.1v130.3"/>
<line class="st0" x1="279.7" y1="679.1" x2="279.7" y2="809.4"/>
<line class="st0" x1="429.1" y1="809.4" x2="429.1" y2="679.1"/>
<line class="st0" x1="449.9" y1="809.4" x2="449.9" y2="679.2"/>
<line class="st0" x1="456.4" y1="809.4" x2="456.4" y2="679.1"/>
<line class="st1" x1="810.3" y1="809.4" x2="810.3" y2="679.2"/>
<line class="st1" x1="825.3" y1="694.2" x2="810.3" y2="694.2"/>
<line class="st1" x1="820.7" y1="782.1" x2="820.7" y2="694.2"/>
<polyline class="st1" points="823.3,782.1 823.3,694.2 820.7,694.2 "/>
<line class="st1" x1="825.3" y1="780.1" x2="818.9" y2="780.1"/>
<polyline class="st1" points="825.3,782.9 825.3,782.1 810.3,782.1 "/>
<line class="st0" x1="279.7" y1="775.4" x2="266.5" y2="775.4"/>
<line class="st0" x1="471.1" y1="681.4" x2="471.1" y2="807.2"/>
<line class="st0" x1="447.8" y1="693.5" x2="456.4" y2="693.5"/>
<line class="st0" x1="472" y1="694.3" x2="477.5" y2="694.3"/>
<line class="st0" x1="658.3" y1="861.1" x2="658.3" y2="989.8"/>
<line class="st0" x1="643.5" y1="989.8" x2="643.5" y2="860.2"/>
<line class="st0" x1="475.9" y1="989.8" x2="475.9" y2="861.1"/>
<path class="st0" d="M266.5,861.1v131.5"/>
<line class="st0" x1="279.7" y1="861.1" x2="279.7" y2="989.8"/>
<line class="st1" x1="810.3" y1="989.8" x2="810.3" y2="861.1"/>
<rect x="449.6" y="877.9" class="st0" width="6.7" height="111.2"/>
<polyline class="st0" points="449.6,877.9 449.6,858 456.4,858 456.4,877.9 "/>
<line class="st0" x1="658.3" y1="1041.4" x2="658.3" y2="1183.4"/>
<line class="st0" x1="643.5" y1="1183.4" x2="643.5" y2="1041.4"/>
<line class="st0" x1="475.9" y1="1182.6" x2="475.9" y2="1041.4"/>
<polyline class="st0" points="83.3,1054.4 83.3,1153.8 78.9,1153.8 "/>
<polyline class="st0" points="79.9,1054.4 79.9,1155.8 93.3,1155.8 "/>
<line class="st0" x1="78.9" y1="1054.4" x2="92.7" y2="1054.4"/>
<line class="st0" x1="100.2" y1="1180.9" x2="100.2" y2="1043.2"/>
<line class="st0" x1="100.2" y1="1054.4" x2="263.4" y2="1054.4"/>
<line class="st0" x1="263.4" y1="1044.2" x2="263.4" y2="1183.4"/>
<line class="st0" x1="283.3" y1="1043.4" x2="283.3" y2="1182.3"/>
<line class="st0" x1="283.3" y1="1055.1" x2="428.1" y2="1055.1"/>
<polyline class="st0" points="428.1,1043.4 428.1,1061.7 449.1,1061.7 449.1,1043.4 "/>
<polyline class="st0" points="449.1,1056.1 453.7,1056.1 453.7,1042.9 "/>
<polyline class="st0" points="473.3,1045.2 473.3,1156.3 453.7,1156.3 453.7,1056.1 "/>
<line class="st5" x1="664.9" y1="1182.6" x2="664.9" y2="1041.4"/>
<line class="st2" x1="825" y1="1156.1" x2="818.9" y2="1156.1"/>
<polyline class="st1" points="823.5,1158.3 825,1058 820.5,1058 820.5,1158.3 825,1158.3 810.3,1158.3 810.3,1181.4 "/>
<line class="st1" x1="810.3" y1="1158.3" x2="810.3" y2="1041.4"/>
<line class="st1" x1="825" y1="1056" x2="664.9" y2="1056"/>
<line class="st0" x1="91.4" y1="1183.4" x2="91.4" y2="1043.2"/>
<line class="st0" x1="475.9" y1="257.5" x2="475.9" y2="114.2"/>
<line class="st0" x1="498.6" y1="116.9" x2="498.6" y2="258.7"/>
<rect x="555.2" y="125.4" class="st0" width="5.8" height="130.4"/>
<line class="st0" x1="465.5" y1="120.9" x2="465.5" y2="257.5"/>
<line class="st0" x1="731.8" y1="147.6" x2="725.6" y2="151.2"/>
<line class="st0" x1="774" y1="203.8" x2="780.4" y2="198.7"/>
<line class="st0" x1="465.5" y1="121.4" x2="366.8" y2="131.5"/>
<polygon class="st0" points="367,257.5 361.2,257.5 361.2,121.4 367,124.1 "/>
<polygon class="st0" points="275.8,257.5 270,257.5 270,135 275.8,136.2 "/>
<rect x="168.4" y="148.9" class="st0" width="5.8" height="108.5"/>
<polygon class="st0" points="129.4,257.5 126.5,257.5 126.5,207.5 129.4,203.2 "/>
<line class="st0" x1="168.4" y1="154.4" x2="86.9" y2="257.5"/>
<polygon class="st0" points="94.1,248.4 96.2,245.7 129.4,246.2 129.4,248.9 "/>
<rect x="711.8" y="157.6" class="st0" width="5.8" height="99.8"/>
<polyline class="st0" points="711.8,157.6 711.8,151 725.6,151 725.6,157.6 719.9,157.6 719.9,151 "/>
<polygon class="st0" points="775,254.8 779.4,254.8 779.4,210.3 775,205.3 "/>
<polygon class="st0" points="815.5,250.2 811.1,245.2 775,245.2 775,250.2 "/>
<line class="st0" x1="429.1" y1="257.5" x2="429.1" y2="114.2"/>
<line class="st0" x1="449.9" y1="257.5" x2="449.9" y2="110.2"/>
<line class="st0" x1="465.5" y1="124.4" x2="711.8" y2="151"/>
<line class="st0" x1="725.6" y1="151" x2="821.3" y2="257.5"/>
<path class="st6" d="M864.6,1333.9"/>
<polygon class="st7" points="864.6,1010.7 864.6,846.4 44.8,846.4 44.8,1010.1 "/>
<polygon class="st7" points="864.6,1211.4 864.6,1023 44.8,1023 44.8,1210.7 "/>
<polygon class="st7" points="864.5,832.8 864.5,662.8 44.7,662.8 44.7,832.2 "/>
<polygon class="st7" points="864.6,650.1 864.6,476 44.8,476 44.8,649.5 "/>
<polygon class="st7" points="864.6,1333.9 864.6,1223.9 44.8,1223.9 44.8,1333.6 "/>
<polygon class="st7" points="44.8,278.3 44.8,261.1 137.8,137.5 453.9,93.1 771.6,138.1 864.4,261.7 864.6,278.9 "/>
<path class="st7" d="M454.1,9.4c5.9,14.5,31,20,31,20l-4.8,23.1c-4.4,9.1-20.6,16.7-20.6,16.7c2.6,9.3,24.3,6.8,24.3,6.8l2.7,4.1
	L787.6,125C874.4,262.4,903,261.7,903,261.7v5.5l-7.1,4.9c-10.4,5.3-10.2,17.3-10.2,17.3V1348l-868-0.6v-1060c0,0-2-10-6.8-13.4
	s-10.4-7.2-10.4-7.2v-5.6c0,0,41.4-23.1,78.3-79.9l36.9-56.8l300.4-44.4l2.7-4.1c0,0,22,2.6,25.4-6.5c-12.9-3.8-22.3-15-23.7-28.4
	l-2.4-12.1c0,0,26.8-5,31-19.4"/>
<ellipse class="st7" cx="451.8" cy="5" rx="6.2" ry="4.5"/>
<polygon class="st8" points="827.4,251.5 831.7,257.5 75.3,257.5 154,151.5 454.9,109.1 761.7,152.5 "/>
<path class="st9" d="M146.8,251.7c1.1-0.4,2.3-0.6,3.5-0.6c0.6,0,1.2,0.1,1.8,0.1c0.4-0.5,0.9-1,1.5-1.4h-2.7v-16.1h12v-20.2h12
	v-20.6h10.5v-3.8h-14.3v20.6h-12V230h-12v19.9h-2.2C145.7,250.4,146.3,251,146.8,251.7"/>
<rect x="76.1" y="1238.6" class="st10" width="751.3" height="79.9"/>
<path class="st9" d="M178.7,1309.3c1.1-0.4,2.3-0.6,3.5-0.6c0.6,0,1.2,0.1,1.8,0.2c0.4-0.5,0.9-1,1.4-1.4h-2.7v-16.1h12v-20.1h12
	v-20.7h10.5v-3.8h-14.4v20.6h-12v20.2h-12v19.9h-2.2C177.4,1308.1,178.1,1308.7,178.7,1309.3"/>
<rect x="76.1" y="309.3" class="st11" width="751.3" height="131.6"/>
<path class="st9" d="M216.7,431.7h-0.6v-12.9H209V407H202v-12.2h-7.3v-12.2h-7.1v-11.6h-7.1v-11.9h-7.1v-11.9h-7.6v-12.7h-6.8v-11.9
	h-7.6v-8.1h-0.3c-0.6,0-1.3-0.1-1.9-0.3V325h7.6v11.9h6.8v12.7h7.6v11.9h7.1v11.9h7.1v11.6h7.1v12.2h7.3v12.2h7.1v11.9h7.1v10.6
	h-1.3"/>
<polygon class="st12" points="498.6,493.3 827.4,493.3 827.4,611.6 76.1,611.6 76.1,493.3 449,493.3 "/>
<path class="st9" d="M149.3,605.2h0.6v-11.8h7v-10.9h7.1v-11.2h7.3v-11.2h7.1v-10.6h7.1v-10.9h7.1v-10.9h7.6V516h6.9v-10.9h7.6v-7.4
	h0.3c0.6,0,1.3-0.1,1.9-0.3v9.7h-7.6v10.9h-6.8v11.7h-7.6v10.9h-7.1v10.9h-7.1v10.6h-7.1v11.2h-7.3v11.2h-7.1v10.9h-7.1v9.7h1.3"/>
<rect x="76.1" y="679.2" class="st13" width="751.3" height="130.2"/>
<path class="st9" d="M216.7,803.7h-0.6v-12.9H209V779H202v-12.2h-7.3v-12.2h-7.1v-11.6h-7.1v-11.9h-7.1v-11.9h-7.6v-12.7h-6.8v-11.9
	h-7.6v-8.1h-0.3c-0.6,0-1.3-0.1-1.9-0.3V697h7.6v11.9h6.8v12.7h7.6v11.9h7.1v11.9h7.1v11.6h7.1v12.2h7.3v12.2h7.1v11.9h7.1v10.6
	h-1.3"/>
<rect x="76.1" y="861.1" class="st14" width="751.3" height="128.7"/>
<path class="st9" d="M149.3,982h0.6v-12.6h7v-11.6h7.1V946h7.3v-11.8h7.1v-11.3h7.1v-11.6h7.1v-11.6h7.6v-12.4h6.9v-11.6h7.6v-7.9
	h0.3c0.6,0,1.3-0.1,1.9-0.3v10.3h-7.6v11.6h-6.8v12.4h-7.6v11.6h-7.1V925h-7.1v11.3h-7.1v11.8h-7.3V960h-7.1v11.7h-7.1V982h1.3"/>
<rect x="76.1" y="1041.4" class="st15" width="751.3" height="142"/>
<path class="st9" d="M216.7,1175.7h-0.6v-13.2H209v-12.2H202v-12.5h-7.3v-12.5h-7.1v-11.9h-7.1v-12.2h-7.1v-12.2h-7.6v-13.1h-6.8
	v-12.2h-7.6v-8.3h-0.3c-0.6,0-1.3-0.1-1.9-0.3v10.9h7.6v12.2h6.8v13.1h7.6v12.2h7.1v12.2h7.1v11.9h7.1v12.5h7.3v12.5h7.1v12.2h7.1
	v10.9h-1.3"/>
<polygon class="st7" points="864.6,462.9 864.6,291.2 44.8,291.2 44.8,462.3 "/>
</svg>
